<svg id="Capa_1" enable-background="new 0 0 512.002 512.002" height="512" viewBox="0 0 512.002 512.002" width="512" xmlns="http://www.w3.org/2000/svg"><path d="m447.458 256.96c0 51.168 10.736 96.229 31.022 131.72 4.984 8.72 2.415 19.785-5.832 25.519-48.478 33.711-132.658 55.676-216.647 55.676s-168.168-21.965-216.647-55.676c-8.246-5.734-10.816-16.799-5.832-25.519 20.286-35.491 31.022-80.552 31.022-131.72z" fill="#4e5660"/><path d="m256.529 469.875c59.809 0 119.701-11.145 166.739-29.733 11.888-4.698 17.083-18.71 11.182-30.048-16.841-32.357-36.436-87.345-38.776-153.134h-279.55c-2.332 65.551-21.792 120.373-38.591 152.773-5.857 11.297-.69 25.247 11.127 29.967 47.207 18.855 107.583 30.175 167.869 30.175z" fill="#383c43"/><path d="m385.534 504.502c20.784 0 35.99-19.52 31.017-39.7-17.78-72.144-82.917-125.646-160.549-125.646-77.633 0-142.77 53.502-160.549 125.646-4.974 20.181 10.232 39.7 31.017 39.7z" fill="#a3defe"/><path d="m196.427 350.222c-49.835 19.257-88.006 61.956-100.975 114.58-4.974 20.181 10.232 39.701 31.017 39.701h99.433c-30.689-19.843-57.739-103.494-29.475-154.281z" fill="#7acefa"/><path d="m348.603 345.654-74.604 104.1c-8.833 12.325-27.162 12.325-35.995 0l-74.604-104.1z" fill="#fff"/><circle cx="78.475" cy="232.689" fill="#ffbf9e" r="61.946"/><circle cx="433.527" cy="232.689" fill="#ffbf9e" r="61.946"/><ellipse cx="73.233" cy="299.98" fill="#89d47f" rx="31.292" ry="36.136"/><ellipse cx="438.769" cy="299.98" fill="#89d47f" rx="31.292" ry="36.136"/><ellipse cx="256.001" cy="232.689" fill="#ffd4be" rx="186.165" ry="169.967"/><ellipse cx="146.006" cy="275.869" fill="#eda1ab" rx="40.586" ry="32.321"/><ellipse cx="365.996" cy="275.869" fill="#eda1ab" rx="40.586" ry="32.321"/><path d="m255.981 45.796c126.634 0 184.162 90.218 197.894 141.599 2.359 8.828-4.842 17.294-13.949 16.544-39.786-3.278-124.189-16.903-183.945-57.285-59.756 40.381-144.156 54.006-183.943 57.285-9.203.758-16.292-7.844-13.893-16.761 13.836-51.418 71.381-141.382 197.836-141.382z" fill="#4e5660"/><path d="m261.061 9.015 22.562 14.819c4.788 3.145 10.814 3.742 16.126 1.597l21.908-8.845c6.827-2.756 13.97 3.209 12.474 10.418l-10.981 52.93c-1.309 6.312-6.441 11.114-12.826 11.997-14.318 1.98-35.961 4.088-54.323 4.088s-40.005-2.108-54.322-4.088c-6.385-.883-11.517-5.685-12.826-11.997l-10.981-52.93c-1.495-7.208 5.648-13.174 12.474-10.418l21.908 8.845c5.312 2.145 11.338 1.548 16.126-1.597l22.562-14.819c3.071-2.017 7.047-2.017 10.119 0z" fill="#f7ef87"/><path d="m241.77 15.039-13.391 8.795c-4.788 3.145-10.814 3.742-16.126 1.597l-21.908-8.845c-6.827-2.756-13.97 3.209-12.474 10.418l10.981 52.93c1.309 6.312 6.441 11.114 12.826 11.997 14.317 1.98 35.96 4.088 54.323 4.088 1.171 0 2.356-.009 3.551-.026-14.455-17.029-25.483-54.212-17.782-80.954z" fill="#efd176"/><path d="m151.433 504.502c17.808-25.97 19.657-108.195-41.695-108.195-51.258 0-69.565 55.17-54.296 90.327 4.716 10.86 15.451 17.867 27.291 17.867h68.7z" fill="#a3defe"/><path d="m360.569 504.502c-17.808-25.97-19.657-108.195 41.695-108.195 51.258 0 69.565 55.17 54.296 90.327-4.716 10.86-15.451 17.867-27.291 17.867h-68.7z" fill="#7acefa"/><path d="m150.342 248.199c4.143 0 7.5-3.358 7.5-7.5 0-6.517 5.301-11.818 11.817-11.818s11.818 5.301 11.818 11.818c0 4.142 3.357 7.5 7.5 7.5s7.5-3.358 7.5-7.5c0-14.788-12.03-26.818-26.818-26.818-14.787 0-26.817 12.03-26.817 26.818 0 4.142 3.357 7.5 7.5 7.5zm313.837 84.71c11.566-11.307 16.089-28.97 11.784-45.27 17.01-13.12 27.011-33.257 27.011-54.95 0-30.325-19.635-56.968-48.204-66.119-16.984-42.226-55.258-91.352-118.167-114.557l4.872-23.485c2.71-13.061-10.26-23.887-22.626-18.896l-21.907 8.845c-3.03 1.222-6.471.883-9.201-.911l-22.562-14.819c-5.575-3.663-12.779-3.663-18.354 0l-22.563 14.82c-2.731 1.793-6.17 2.134-9.2.911l-21.907-8.845c-12.368-4.996-25.335 5.839-22.626 18.896l4.867 23.459c-30.008 11.04-56.272 28.528-78.139 52.056-2.82 3.034-2.646 7.78.388 10.6 3.041 2.826 7.786 2.64 10.599-.388 19.73-21.228 43.335-37.129 70.24-47.387l3.027 14.59c1.949 9.394 9.642 16.589 19.143 17.903 14.539 2.011 36.714 4.159 55.35 4.159s40.811-2.148 55.35-4.159c9.501-1.314 17.193-8.509 19.143-17.903l3.023-14.574c65.878 25.185 102.042 81.021 113.113 122.447 1.021 3.817-2.145 7.462-6.087 7.132-18.534-1.527-114.335-11.404-180.362-56.024-2.536-1.713-5.86-1.714-8.398 0-66.026 44.619-161.826 54.497-180.36 56.024-4.041.331-7.083-3.438-6.034-7.337 4.094-15.212 11.714-31.981 21.456-47.219 2.23-3.49 1.211-8.128-2.279-10.359-3.488-2.232-8.127-1.212-10.359 2.279-7.69 12.027-13.14 23.188-16.999 32.75-28.554 9.16-48.178 35.795-48.178 66.111 0 21.693 10.001 41.83 27.011 54.95-4.297 16.271.198 33.943 11.784 45.27-4.998 19.079-11.973 36.584-20.813 52.049-6.947 12.155-3.481 27.372 8.061 35.398 4.323 3.006 8.993 5.963 13.935 8.831-8.036 19.104-8.441 42.021-.443 60.435 5.903 13.596 19.315 22.38 34.169 22.38h326.173c4.143 0 7.5-3.358 7.5-7.5s-3.357-7.5-7.5-7.5h-44.09c-8.04-15.484-11.903-48.742.065-71.46 7.599-14.422 20.174-21.735 37.379-21.735 19.157 0 34.897 8.663 44.345 25.854 8.941 16.29 10.26 37.433 3.07 53.986-1.852 4.264-4.942 7.785-8.94 10.181-3.553 2.13-4.706 6.736-2.576 10.289 2.131 3.553 6.738 4.705 10.289 2.576 6.698-4.016 11.881-9.919 14.986-17.071 7.998-18.414 7.592-41.331-.443-60.435 4.941-2.869 9.612-5.825 13.934-8.831 11.544-8.026 15.01-23.244 8.063-35.398-8.84-15.465-15.815-32.969-20.813-52.049zm-137.392-307.428-10.981 52.93c-.663 3.196-3.279 5.645-6.51 6.091-14.045 1.942-35.421 4.018-53.295 4.018s-39.25-2.075-53.295-4.018c-3.23-.447-5.847-2.895-6.51-6.091l-10.981-52.93c-.28-1.348 1.036-2.459 2.323-1.94l21.907 8.845c7.594 3.066 16.211 2.212 23.051-2.283l22.563-14.819c.572-.376 1.311-.376 1.883 0h.001l22.563 14.819c6.84 4.494 15.457 5.348 23.051 2.283l21.907-8.845c.789-.318 1.382-.027 1.743.274.36.301.753.834.58 1.666zm121.328 184.747c9.985-3.621 15.657-14.137 13.084-24.444 16.272 9.6 26.775 27.266 26.775 46.905 0 15.799-6.785 30.535-18.444 40.8-5.346-7.825-12.987-13.571-21.773-15.937 2.338-15.219 2.612-31.004.358-47.324zm-3.314 62.06c10.198 3.233 17.761 14.455 17.761 27.691 0 24.419-23.779 37.539-39.141 21.827 9.685-15.22 16.974-31.87 21.38-49.518zm-365.842-61.446c17.253-1.695 46.222-5.593 79.479-14.381 38.492-10.171 71.278-23.895 97.544-40.821 26.266 16.926 59.053 30.65 97.546 40.822 33.281 8.794 62.269 12.691 79.517 14.384 1.071 7.238 1.622 14.561 1.622 21.843 0 89.585-80.148 162.467-178.665 162.467-107.582 0-191.538-86.4-177.043-184.314zm216.906 195.526-27.963 39.018c-2.784 3.885-7.122 6.113-11.901 6.113s-9.117-2.228-11.901-6.113l-27.963-39.018c12.87 2.478 26.202 3.789 39.864 3.789 13.662-.001 26.995-1.312 39.864-3.789zm-228.664-134.08c4.406 17.648 11.694 34.298 21.38 49.518-15.452 15.805-39.141 2.457-39.141-21.827.001-13.236 7.563-24.457 17.761-27.691zm-24.728 1.201c-11.659-10.265-18.444-25.001-18.444-40.8 0-19.624 10.488-37.279 26.739-46.883-2.437 10.195 3.03 20.782 13.119 24.432-2.119 15.344-2.128 31.128.36 47.315-8.787 2.365-16.428 8.111-21.774 15.936zm1.163 134.552c-5.116-3.558-6.665-10.281-3.602-15.64 8.76-15.326 15.818-32.445 21.047-50.991 11.923 4.436 25.642 2.242 36.191-7.168 12.075 15.801 26.881 29.723 43.79 41.187-5.36 4.779-10.434 9.89-15.167 15.298-5.029-1.273-10.425-1.919-16.157-1.919-22.339 0-41.267 9.649-53.522 27.22-4.467-2.605-8.684-5.277-12.58-7.987zm103.546 88.961h-64.449c-8.876 0-16.888-5.242-20.411-13.355-7.881-18.146-5.425-41.361 5.328-57.755 6.608-10.075 19.274-22.084 42.089-22.084 17.205 0 29.78 7.313 37.379 21.735 11.967 22.718 8.104 55.975.064 71.459zm204.432-78.45c-12.207 23.171-11.476 56.581-3.181 78.451h-184.864c8.295-21.87 9.026-55.28-3.181-78.451-4.968-9.43-11.646-16.698-19.81-21.693 4.344-4.656 8.964-9.052 13.826-13.148 12.242 6.941 25.382 12.674 39.227 17.001l38.278 53.411c5.636 7.865 14.417 12.375 24.093 12.375s18.457-4.511 24.093-12.375l38.278-53.411c13.845-4.327 26.985-10.06 39.227-17.001 4.861 4.095 9.481 8.492 13.825 13.148-8.165 4.995-14.843 12.263-19.811 21.693zm116.751-10.511c-3.896 2.709-8.112 5.382-12.58 7.986-12.255-17.571-31.183-27.22-53.522-27.22-5.733 0-11.129.646-16.158 1.92-4.733-5.408-9.807-10.52-15.166-15.298 16.909-11.464 31.716-25.387 43.79-41.187 10.55 9.412 24.27 11.604 36.191 7.168 5.229 18.546 12.287 35.665 21.047 50.991 3.064 5.359 1.516 12.082-3.602 15.64zm-145.34-159.842c4.143 0 7.5-3.358 7.5-7.5 0-6.517 5.302-11.818 11.818-11.818s11.817 5.301 11.817 11.818c0 4.142 3.357 7.5 7.5 7.5s7.5-3.358 7.5-7.5c0-14.788-12.03-26.818-26.817-26.818-14.788 0-26.818 12.03-26.818 26.818 0 4.142 3.357 7.5 7.5 7.5zm-67.024 31.914c10.021 0 19.551-4.34 26.146-11.908 2.722-3.122 2.396-7.86-.727-10.582-3.122-2.721-7.86-2.396-10.582.727-3.745 4.298-9.153 6.763-14.837 6.763s-11.092-2.465-14.839-6.764c-2.721-3.122-7.46-3.447-10.581-.726-3.123 2.722-3.447 7.46-.726 10.582 6.596 7.568 16.126 11.908 26.146 11.908z"/></svg>